<svg width="24" height="24" viewBox="0 0 24 24" fill="none" xmlns="http://www.w3.org/2000/svg">
<path d="M4.70229 11.3312C4.26284 11.7706 4.26284 12.4843 4.70229 12.9237L10.3273 18.5487C10.7667 18.9882 11.4804 18.9882 11.9199 18.5487C12.3593 18.1093 12.3593 17.3956 11.9199 16.9562L8.21089 13.2507L18.9968 13.2507C19.6191 13.2507 20.1218 12.7479 20.1218 12.1257C20.1218 11.5034 19.6191 11.0007 18.9968 11.0007L8.2144 11.0007L11.9164 7.29521C12.3558 6.85576 12.3558 6.14209 11.9164 5.70264C11.4769 5.26318 10.7632 5.26318 10.3238 5.70264L4.69878 11.3276L4.70229 11.3312Z" fill="#F7F7FA"/>
</svg>
