<svg width="20" height="21" viewBox="0 0 20 21" fill="none" xmlns="http://www.w3.org/2000/svg">
<path d="M9.99529 3C9.47673 3 9.05779 3.41895 9.05779 3.9375V4.5C6.91912 4.93359 5.30779 6.82617 5.30779 9.09375V9.64453C5.30779 11.0215 4.80095 12.3516 3.88689 13.3828L3.67009 13.626C3.424 13.9014 3.36541 14.2969 3.51482 14.6338C3.66423 14.9707 4.00115 15.1875 4.37029 15.1875H15.6203C15.9894 15.1875 16.3234 14.9707 16.4758 14.6338C16.6281 14.2969 16.5666 13.9014 16.3205 13.626L16.1037 13.3828C15.1896 12.3516 14.6828 11.0244 14.6828 9.64453V9.09375C14.6828 6.82617 13.0715 4.93359 10.9328 4.5V3.9375C10.9328 3.41895 10.5138 3 9.99529 3ZM11.3224 17.4521C11.674 17.1006 11.8703 16.623 11.8703 16.125H9.99529H8.12029C8.12029 16.623 8.31658 17.1006 8.66814 17.4521C9.0197 17.8037 9.49724 18 9.99529 18C10.4933 18 10.9709 17.8037 11.3224 17.4521Z" fill="#9696A0"/>
</svg>
