<svg width="24" height="24" viewBox="0 0 24 24" fill="none" xmlns="http://www.w3.org/2000/svg">
<path d="M17.3221 8.29424C17.7615 7.85479 17.7615 7.14111 17.3221 6.70166C16.8826 6.26221 16.1689 6.26221 15.7295 6.70166L12.0275 10.4071L8.32207 6.70518C7.88262 6.26572 7.16895 6.26572 6.72949 6.70518C6.29004 7.14463 6.29004 7.8583 6.72949 8.29775L10.435 11.9997L6.73301 15.7052C6.29355 16.1446 6.29355 16.8583 6.73301 17.2978C7.17246 17.7372 7.88613 17.7372 8.32559 17.2978L12.0275 13.5923L15.733 17.2942C16.1725 17.7337 16.8861 17.7337 17.3256 17.2942C17.765 16.8548 17.765 16.1411 17.3256 15.7017L13.6201 11.9997L17.3221 8.29424Z" fill="#33475F"/>
</svg>
