<svg width="20" height="21" viewBox="0 0 20 21" fill="none" xmlns="http://www.w3.org/2000/svg">
<g clip-path="url(#clip0_86_29537)">
<path d="M14.8968 18.1562H5.10327C4.77968 18.1562 4.51733 18.4186 4.51733 18.7422V19.914C4.51733 20.2376 4.77968 20.5 5.10327 20.5H14.8968C15.2204 20.5 15.4828 20.2376 15.4828 19.914V18.7422C15.4828 18.4186 15.2204 18.1562 14.8968 18.1562Z" fill="#9696A0"/>
<path d="M12.2953 15.3103H11.8818C11.7508 14.9596 11.6599 14.388 11.6517 13.6475C11.1339 13.783 10.5812 13.8517 9.9955 13.8517C9.48453 13.8517 8.92586 13.7977 8.35528 13.65C8.35352 13.9962 8.33348 14.3783 8.27555 14.7316C8.24278 14.9314 8.19278 15.1386 8.127 15.3103H7.70458C6.95072 15.3103 6.3374 15.9236 6.3374 16.6774V16.9846H13.6625V16.6774C13.6625 15.9236 13.0492 15.3103 12.2953 15.3103Z" fill="#9696A0"/>
<path d="M19.0198 2.85449H16.9365C16.9113 3.13515 16.8893 3.42312 16.8732 3.63351C16.8635 3.76093 16.8534 3.89226 16.8429 4.02636H18.4122C18.281 5.63267 17.5531 7.02872 16.2428 8.19133C16.1164 8.69144 15.9632 9.18546 15.7749 9.66006C15.7012 9.84588 15.6229 10.0253 15.5409 10.1992L16.2439 9.69026C18.4746 8.07535 19.6057 5.98892 19.6057 3.48894V3.44039C19.6057 3.11679 19.3434 2.85449 19.0198 2.85449Z" fill="#9696A0"/>
<path d="M3.71356 8.1566C2.42958 7.00036 1.71635 5.61595 1.58744 4.02636H3.11212C3.09884 3.85648 3.08641 3.69132 3.07442 3.53171C3.05993 3.33886 3.04161 3.09554 3.02095 2.85449H0.98022C0.656629 2.85449 0.394287 3.11683 0.394287 3.44043V3.49324C0.394287 5.99013 1.52338 8.07512 3.75024 9.6903L4.42293 10.1782C4.3364 9.99487 4.25316 9.80327 4.17391 9.6021C3.98938 9.13386 3.83856 8.64796 3.71356 8.1566Z" fill="#9696A0"/>
<path d="M3.50488 1.67194H4.0523C4.13659 2.02792 4.19472 2.80139 4.243 3.44361C4.36593 5.07946 4.53428 7.31983 5.26416 9.17224C6.18115 11.4996 7.77301 12.6796 9.99545 12.6796C12.1988 12.6796 13.7768 11.5182 14.6855 9.22763C15.4101 7.40135 15.5803 5.17188 15.7046 3.54396C15.7569 2.85904 15.8201 2.03136 15.9153 1.67187H16.495C16.8186 1.67187 17.0809 1.40952 17.0809 1.08593C17.0809 0.762342 16.8186 0.5 16.495 0.5H3.50488C3.18129 0.5 2.91895 0.762342 2.91895 1.08593C2.91895 1.4096 3.18129 1.67194 3.50488 1.67194ZM9.05308 4.66575L9.87807 4.16575C9.92807 4.1345 9.99057 4.122 10.0594 4.122C10.2594 4.122 10.4906 4.24075 10.4906 4.42825V8.4033C10.4906 8.6033 10.2469 8.7033 10.0031 8.7033C9.75936 8.7033 9.51557 8.6033 9.51557 8.4033V5.22199L9.33432 5.33449C9.27808 5.37199 9.22183 5.38449 9.17808 5.38449C8.99679 5.38449 8.87179 5.19074 8.87179 4.997C8.87179 4.86575 8.92808 4.74075 9.05308 4.66575Z" fill="#9696A0"/>
</g>
<defs>
<clipPath id="clip0_86_29537">
<rect width="20" height="20" fill="white" transform="translate(0 0.5)"/>
</clipPath>
</defs>
</svg>
