<svg width="24" height="24" viewBox="0 0 24 24" fill="none" xmlns="http://www.w3.org/2000/svg">
<path d="M19.5797 3.57744C18.8098 2.80752 17.5652 2.80752 16.7953 3.57744L15.7371 4.63213L19.1789 8.07393L20.2371 7.01572C21.007 6.2458 21.007 5.00127 20.2371 4.23135L19.5797 3.57744ZM9.06094 11.3118C8.84648 11.5263 8.68125 11.7899 8.58633 12.0817L7.5457 15.2036C7.44375 15.506 7.52461 15.8399 7.74961 16.0685C7.97461 16.297 8.30859 16.3743 8.61445 16.2724L11.7363 15.2317C12.0246 15.1368 12.2883 14.9716 12.5062 14.7571L18.3879 8.87197L14.9426 5.42666L9.06094 11.3118ZM6.375 5.06455C4.51172 5.06455 3 6.57627 3 8.43955V17.4396C3 19.3028 4.51172 20.8146 6.375 20.8146H15.375C17.2383 20.8146 18.75 19.3028 18.75 17.4396V14.0646C18.75 13.4423 18.2473 12.9396 17.625 12.9396C17.0027 12.9396 16.5 13.4423 16.5 14.0646V17.4396C16.5 18.0618 15.9973 18.5646 15.375 18.5646H6.375C5.75273 18.5646 5.25 18.0618 5.25 17.4396V8.43955C5.25 7.81729 5.75273 7.31455 6.375 7.31455H9.75C10.3723 7.31455 10.875 6.81182 10.875 6.18955C10.875 5.56729 10.3723 5.06455 9.75 5.06455H6.375Z" fill="#F7F7FA"/>
</svg>
