<svg width="24" height="24" viewBox="0 0 24 24" fill="none" xmlns="http://www.w3.org/2000/svg">
<path d="M11.9992 5C9.47422 5 7.45234 6.15 5.98047 7.51875C4.51797 8.875 3.53984 10.5 3.07734 11.6156C2.97422 11.8625 2.97422 12.1375 3.07734 12.3844C3.53984 13.5 4.51797 15.125 5.98047 16.4812C7.45234 17.85 9.47422 19 11.9992 19C14.5242 19 16.5461 17.85 18.018 16.4812C19.4805 15.1219 20.4586 13.5 20.9242 12.3844C21.0273 12.1375 21.0273 11.8625 20.9242 11.6156C20.4586 10.5 19.4805 8.875 18.018 7.51875C16.5461 6.15 14.5242 5 11.9992 5ZM7.49922 12C7.49922 10.8065 7.97332 9.66193 8.81724 8.81802C9.66115 7.97411 10.8057 7.5 11.9992 7.5C13.1927 7.5 14.3373 7.97411 15.1812 8.81802C16.0251 9.66193 16.4992 10.8065 16.4992 12C16.4992 13.1935 16.0251 14.3381 15.1812 15.182C14.3373 16.0259 13.1927 16.5 11.9992 16.5C10.8057 16.5 9.66115 16.0259 8.81724 15.182C7.97332 14.3381 7.49922 13.1935 7.49922 12ZM11.9992 10C11.9992 11.1031 11.1023 12 9.99922 12C9.77734 12 9.56484 11.9625 9.36484 11.8969C9.19297 11.8406 8.99297 11.9469 8.99922 12.1281C9.00859 12.3438 9.03984 12.5594 9.09922 12.775C9.52734 14.375 11.1742 15.325 12.7742 14.8969C14.3742 14.4688 15.3242 12.8219 14.8961 11.2219C14.5492 9.925 13.4023 9.05312 12.1273 9C11.9461 8.99375 11.8398 9.19062 11.8961 9.36562C11.9617 9.56562 11.9992 9.77812 11.9992 10Z" fill="#33475F"/>
</svg>
