<svg width="21" height="20" viewBox="0 0 21 20" fill="none" xmlns="http://www.w3.org/2000/svg">
<path d="M10.5 1.875C8.89303 1.875 7.32214 2.35152 5.986 3.24431C4.64985 4.1371 3.60844 5.40605 2.99348 6.8907C2.37852 8.37535 2.21762 10.009 2.53112 11.5851C2.84463 13.1612 3.61846 14.6089 4.75476 15.7452C5.89106 16.8815 7.3388 17.6554 8.9149 17.9689C10.491 18.2824 12.1247 18.1215 13.6093 17.5065C15.094 16.8916 16.3629 15.8502 17.2557 14.514C18.1485 13.1779 18.625 11.607 18.625 10C18.6227 7.84581 17.766 5.78051 16.2427 4.25727C14.7195 2.73403 12.6542 1.87727 10.5 1.875ZM16.4781 13.3922H13.8516L13.1281 12.3953L14.1148 9.52187L15.2867 9.13984L17.3367 10.7125C17.2397 11.6557 16.9473 12.5683 16.4781 13.3922ZM3.66563 10.7125L5.71172 9.14062L6.8836 9.52266L7.87032 12.3961L7.14844 13.3922H4.52188C4.05215 12.5684 3.75921 11.6558 3.66172 10.7125H3.66563ZM4.44688 6.75625L4.87735 8.20938L3.68047 9.12266C3.78658 8.29401 4.04398 7.49191 4.43985 6.75625H4.44688ZM9.01563 11.875L8.12032 9.26953L10.5 7.63359L12.8797 9.26953L11.9844 11.875H9.01563ZM16.1305 8.20938L16.5609 6.75625C16.9568 7.49191 17.2142 8.29401 17.3203 9.12266L16.1305 8.20938ZM15.6461 5.44531L14.9031 7.95156L13.7258 8.33359L11.125 6.54609V5.32891L13.3977 3.76641C14.2536 4.16671 15.0186 4.73809 15.6453 5.44531H15.6461ZM11.9117 3.27109L10.5 4.24141L9.08828 3.27109C10.0194 3.0763 10.9807 3.0763 11.9117 3.27109ZM7.60235 3.76641L9.875 5.32891V6.54609L7.275 8.33359L6.09766 7.95156L5.35469 5.44531C5.98142 4.73809 6.74636 4.16671 7.60235 3.76641ZM5.4336 14.6422H7.025L7.58516 16.2258C6.77174 15.843 6.04088 15.3051 5.4336 14.6422ZM9.09375 16.7289L8.16563 14.118L8.88672 13.125H12.1133L12.8344 14.118L11.9102 16.7289C10.9802 16.9238 10.0198 16.9238 9.08985 16.7289H9.09375ZM13.4188 16.2258L13.9789 14.6422H15.5703C14.9619 15.3055 14.2297 15.8434 13.4148 16.2258H13.4188Z" fill="black"/>
</svg>
