<svg width="24" height="24" viewBox="0 0 24 24" fill="none" xmlns="http://www.w3.org/2000/svg">
<path d="M13.4375 6.125C13.4375 5.50273 12.9348 5 12.3125 5C11.6902 5 11.1875 5.50273 11.1875 6.125V11.1875H6.125C5.50273 11.1875 5 11.6902 5 12.3125C5 12.9348 5.50273 13.4375 6.125 13.4375H11.1875V18.5C11.1875 19.1223 11.6902 19.625 12.3125 19.625C12.9348 19.625 13.4375 19.1223 13.4375 18.5V13.4375H18.5C19.1223 13.4375 19.625 12.9348 19.625 12.3125C19.625 11.6902 19.1223 11.1875 18.5 11.1875H13.4375V6.125Z" fill="#F15B2E"/>
</svg>
