<svg width="24" height="24" viewBox="0 0 24 24" fill="none" xmlns="http://www.w3.org/2000/svg">
<path d="M17.0006 10.5003C17.0006 11.9348 16.535 13.2598 15.7506 14.3349L19.707 18.2944C20.0977 18.6851 20.0977 19.3195 19.707 19.7101C19.3164 20.1008 18.682 20.1008 18.2913 19.7101L14.3349 15.7506C13.2598 16.5381 11.9348 17.0006 10.5003 17.0006C6.90952 17.0006 4 14.0911 4 10.5003C4 6.90952 6.90952 4 10.5003 4C14.0911 4 17.0006 6.90952 17.0006 10.5003ZM10.5003 15.0005C11.0913 15.0005 11.6765 14.8841 12.2225 14.658C12.7685 14.4318 13.2646 14.1003 13.6825 13.6825C14.1003 13.2646 14.4318 12.7685 14.658 12.2225C14.8841 11.6765 15.0005 11.0913 15.0005 10.5003C15.0005 9.90934 14.8841 9.32415 14.658 8.77816C14.4318 8.23217 14.1003 7.73607 13.6825 7.31818C13.2646 6.9003 12.7685 6.56881 12.2225 6.34266C11.6765 6.1165 11.0913 6.0001 10.5003 6.0001C9.90934 6.0001 9.32415 6.1165 8.77816 6.34266C8.23217 6.56881 7.73607 6.9003 7.31818 7.31818C6.9003 7.73607 6.56881 8.23217 6.34266 8.77816C6.1165 9.32415 6.0001 9.90934 6.0001 10.5003C6.0001 11.0913 6.1165 11.6765 6.34266 12.2225C6.56881 12.7685 6.9003 13.2646 7.31818 13.6825C7.73607 14.1003 8.23217 14.4318 8.77816 14.658C9.32415 14.8841 9.90934 15.0005 10.5003 15.0005Z" fill="#F7F7FA"/>
</svg>
