<svg width="24" height="24" viewBox="0 0 24 24" fill="none" xmlns="http://www.w3.org/2000/svg">
<g clip-path="url(#clip0_200_60956)">
<path d="M8.82857 3.49249C9.02143 3.10321 9.41786 2.86035 9.85 2.86035H14.15C14.5821 2.86035 14.9786 3.10321 15.1714 3.49249L15.4286 4.00321H18.8571C19.4893 4.00321 20 4.51392 20 5.14607C20 5.77821 19.4893 6.28892 18.8571 6.28892H5.14286C4.51071 6.28892 4 5.77821 4 5.14607C4 4.51392 4.51071 4.00321 5.14286 4.00321H8.57143L8.82857 3.49249ZM5.14286 7.43178H18.8571V18.8604C18.8571 20.1211 17.8321 21.1461 16.5714 21.1461H7.42857C6.16786 21.1461 5.14286 20.1211 5.14286 18.8604V7.43178ZM8.57143 9.71749C8.25714 9.71749 8 9.97464 8 10.2889V18.2889C8 18.6032 8.25714 18.8604 8.57143 18.8604C8.88571 18.8604 9.14286 18.6032 9.14286 18.2889V10.2889C9.14286 9.97464 8.88571 9.71749 8.57143 9.71749ZM12 9.71749C11.6857 9.71749 11.4286 9.97464 11.4286 10.2889V18.2889C11.4286 18.6032 11.6857 18.8604 12 18.8604C12.3143 18.8604 12.5714 18.6032 12.5714 18.2889V10.2889C12.5714 9.97464 12.3143 9.71749 12 9.71749ZM15.4286 9.71749C15.1143 9.71749 14.8571 9.97464 14.8571 10.2889V18.2889C14.8571 18.6032 15.1143 18.8604 15.4286 18.8604C15.7429 18.8604 16 18.6032 16 18.2889V10.2889C16 9.97464 15.7429 9.71749 15.4286 9.71749Z" fill="#F7F7FA"/>
</g>
<defs>
<clipPath id="clip0_200_60956">
<rect width="16" height="18.2857" fill="white" transform="translate(4 2.86035)"/>
</clipPath>
</defs>
</svg>
