<svg width="20" height="21" viewBox="0 0 20 21" fill="none" xmlns="http://www.w3.org/2000/svg">
<path d="M10 10.4999C11.0104 10.4999 11.9794 10.0985 12.6938 9.38412C13.4082 8.6697 13.8096 7.70073 13.8096 6.69038C13.8096 5.68003 13.4082 4.71107 12.6938 3.99664C11.9794 3.28222 11.0104 2.88086 10 2.88086C8.98969 2.88086 8.02072 3.28222 7.3063 3.99664C6.59188 4.71107 6.19052 5.68003 6.19052 6.69038C6.19052 7.70073 6.59188 8.6697 7.3063 9.38412C8.02072 10.0985 8.98969 10.4999 10 10.4999ZM8.63992 11.9285C5.70837 11.9285 3.33337 14.3035 3.33337 17.235C3.33337 17.7231 3.72921 18.119 4.2173 18.119H15.7828C16.2709 18.119 16.6667 17.7231 16.6667 17.235C16.6667 14.3035 14.2917 11.9285 11.3602 11.9285H8.63992Z" fill="#9696A0"/>
</svg>
