<svg width="20" height="21" viewBox="0 0 20 21" fill="none" xmlns="http://www.w3.org/2000/svg">
<path d="M4.75 7.5C4.75 6.70435 5.06607 5.94129 5.62868 5.37868C6.19129 4.81607 6.95435 4.5 7.75 4.5C8.54565 4.5 9.30871 4.81607 9.87132 5.37868C10.4339 5.94129 10.75 6.70435 10.75 7.5C10.75 8.29565 10.4339 9.05871 9.87132 9.62132C9.30871 10.1839 8.54565 10.5 7.75 10.5C6.95435 10.5 6.19129 10.1839 5.62868 9.62132C5.06607 9.05871 4.75 8.29565 4.75 7.5ZM2.5 15.8039C2.5 13.4953 4.37031 11.625 6.67891 11.625H8.82109C11.1297 11.625 13 13.4953 13 15.8039C13 16.1883 12.6883 16.5 12.3039 16.5H3.19609C2.81172 16.5 2.5 16.1883 2.5 15.8039ZM16.7805 16.5H13.5484C13.675 16.2797 13.75 16.0242 13.75 15.75V15.5625C13.75 14.1398 13.1148 12.8625 12.1141 12.0047C12.1703 12.0023 12.2242 12 12.2805 12H13.7195C15.8078 12 17.5 13.6922 17.5 15.7805C17.5 16.1789 17.1766 16.5 16.7805 16.5ZM12.625 10.5C11.8984 10.5 11.2422 10.2047 10.7664 9.72891C11.2281 9.10547 11.5 8.33437 11.5 7.5C11.5 6.87188 11.3453 6.27891 11.0711 5.75859C11.507 5.43984 12.0438 5.25 12.625 5.25C14.0758 5.25 15.25 6.42422 15.25 7.875C15.25 9.32578 14.0758 10.5 12.625 10.5Z" fill="#9696A0"/>
</svg>
